# xmcd
#
# Track frame offsets: 
#        150
#        30747
#        47472
#        61272
#        82722
#        118647
#        149587
#        182547
#        204372
#        240972
#
# Disc length: 3485 seconds
#
# Revision: 0
# Processed by: cddbd v1.5.2PL0 Copyright (c) Steve Scherf et al.
# Submitted via: ExactAudioCopy v0.95b4
#
DISCID=760d9b0a
DTITLE=Eric Clapton - 1997-10-30 - On Guitar and Vocals-ME! - Part7 - 
DTITLE=CD1
DYEAR=1997
DGENRE=Blues
TTITLE0=Layla
TTITLE1=Change The World
TTITLE2=Nobody Knows You When You're Down And Out
TTITLE3=Tears In Heaven
TTITLE4=Going Down Slow
TTITLE5=Broken Hearted
TTITLE6=Pilgrim
TTITLE7=Before You Accuse Me
TTITLE8=I Shot The Sheriff
TTITLE9=Wonderful Tonight
EXTD=
EXTT0=
EXTT1=
EXTT2=
EXTT3=
EXTT4=
EXTT5=
EXTT6=
EXTT7=
EXTT8=
EXTT9=
PLAYORDER=
